<svg width="14323" height="14322" xmlns="http://www.w3.org/2000/svg" xmlns:xlink="http://www.w3.org/1999/xlink" overflow="hidden"><defs><clipPath id="clip0"><rect x="12103" y="520" width="14323" height="14322"/></clipPath></defs><g clip-path="url(#clip0)" transform="translate(-12103 -520)"><path d="M12119 9726.64 13534.3 3366.52 19264.5 536 24994.7 3366.52 26410 9726.64 22444.5 14827.1 16084.5 14827.1Z" stroke="#000000" stroke-width="27.5" stroke-miterlimit="8" fill="#000000" fill-rule="evenodd" fill-opacity="0.94902"/><path d="M23900 4243.83C22211.1 3924.18 20943.2 3371.24 19398.1 3377.6 17852.9 3383.96 17399.3 3562.14 14629 4282L19321.6 1968 23900 4243.83Z" fill="#FFC000" fill-rule="evenodd"/><path d="M19188.9 2112.59C17897.1 3246.6 16680.6 3905.24 15734.3 5126.79 14788 6348.34 14649.2 6815.54 13511 9441.92L14576.1 4318.96 19188.9 2112.59Z" fill="#FFC000" fill-rule="evenodd"/><path d="M14655.6 4556.38C14724 6273.92 14470.3 7633.79 14824 9137.96 15177.8 10642.1 15453.6 11044 16778.4 13581.4L13467.4 9529.67 14655.6 4556.38Z" fill="#FFC000" fill-rule="evenodd"/><path d="M13570 9699.38C14947.8 10727.1 15844.9 11780.1 17236.5 12451.8 18628.1 13123.4 19114 13162.1 21919.6 13729.3L16687.1 13752.6 13570 9699.38Z" fill="#FFC000" fill-rule="evenodd"/><path d="M16818.2 13682.2C18484 13258.2 19866.9 13223.6 21264.7 12564.8 22662.4 11906 22998.2 11552.8 25204.7 9729.39L21929.9 13810.4 16818.2 13682.2Z" fill="#FFC000" fill-rule="evenodd"/><path d="M22025.3 13598.6C22716.7 12024.9 23540.9 10913.9 23882.3 9406.87 24223.7 7899.84 24152.1 7417.74 24073.6 4556.43L25273.4 9649.53 22025.3 13598.6Z" fill="#FFC000" fill-rule="evenodd"/><path d="M25133.9 9301.43C24346.1 7773.71 24001.3 6434.02 23045 5220.3 22088.6 4006.58 21668.9 3758.85 19395.9 2019.12L24109 4291.93 25133.9 9301.43Z" fill="#FFC000" fill-rule="evenodd"/><path d="M21038 7277.48C21000.3 7277.48 20966.9 7278.1 20936.9 7279.75L20861.5 7287.77 20859.7 7291.64C20673 7611.12 20354.2 7835.69 19980.8 7992.62 20125.9 8260.5 20466.4 8796.49 20717.8 9170.61L20859.7 9369.4 21028.8 9100.66C21395.9 8493.81 21750.5 7839.38 22024.7 7277.48ZM19003.7 5536.4C18752.3 5536.4 18618.5 5569.98 18556.9 5614.59 18501 5659.19 18467.6 5754.16 18467.6 5966.4L18467.6 7976.32 18841.8 7976.32 18841.8 7976.07C19260.5 7976.07 19539.7 7909.17 19752 7741.53 20070.2 7495.96 20198.6 7177.72 20198.6 6736.69 20198.6 5860.16 19623.4 5536.4 19003.7 5536.4ZM16988.1 5251.5 19126.5 5251.5C19757.5 5251.5 20165 5324.17 20483.2 5536.16 20823.8 5748.4 21036.1 6111.25 21036.1 6608.15 21036.1 6696.79 21028.9 6780.98 21015.2 6860.94L20998.5 6924.23 22311 6924.23 22347.5 6976.03C22132.7 7426.77 21917.2 7876.73 21701.4 8328.22L21070.4 9653.27 21095.4 9686.37C21202.2 9822.43 21295.7 9929.87 21393.4 10030.4 21605.7 10270.4 21789.9 10359.9 21979.6 10404.5L21940.5 10633.5C21840 10633.5 21745 10628 21644.5 10616.7 20968.9 10583.1 20622.8 10404.5 20237.6 9868.72 19953 9472.3 19679.3 8975.4 19427.9 8584.73 19277.3 8350.19 19132 8249.71 18702.2 8249.71L18467.6 8249.71 18467.6 9522.66C18467.6 10209.3 18545.8 10270.9 19215.7 10326.5L19215.7 10561.1 16954.5 10561.1 16954.5 10326.5C17630.1 10270.7 17708.3 10209.3 17708.3 9522.66L17708.3 6284.4C17708.3 5586.53 17635.6 5541.92 16988.1 5497.31Z" stroke="#FFC000" stroke-width="3.4375" stroke-miterlimit="8" fill="#FFC000" fill-rule="evenodd"/></g></svg>