<svg width="10168" height="1917" xmlns="http://www.w3.org/2000/svg" xmlns:xlink="http://www.w3.org/1999/xlink" overflow="hidden"><defs><clipPath id="clip0"><rect x="2702" y="5166" width="10168" height="1917"/></clipPath></defs><g clip-path="url(#clip0)" transform="translate(-2702 -5166)"><text fill="#FFC000" font-family="Adobe Arabic,Adobe Arabic_MSFontService,sans-serif" font-weight="700" font-size="912" transform="matrix(1 0 0 1 4034.54 6191)">S E V E N   R E A S O O N S </text><path d="M3353.93 6378.41C3406.6 6258.55 3469.38 6173.92 3495.38 6059.13 3521.39 5944.34 3515.93 5907.61 3509.96 5689.67L3601.34 6077.61 3353.93 6378.41Z" fill="#FFC000" fill-rule="evenodd"/><path d="M3497 5666.08C3368.39 5641.63 3271.84 5599.33 3154.17 5599.82 3036.5 5600.31 3001.96 5613.94 2791 5669L3148.35 5492 3497 5666.08Z" fill="#FFC000" fill-rule="evenodd"/><path d="M3137.88 5503.52C3039.49 5589.9 2946.83 5640.06 2874.75 5733.11 2802.67 5826.16 2792.09 5861.74 2705.4 6061.8L2786.52 5671.58 3137.88 5503.52Z" fill="#FFC000" fill-rule="evenodd"/><path d="M2792.58 5689.66C2797.79 5820.49 2778.46 5924.07 2805.41 6038.64 2832.36 6153.22 2853.36 6183.83 2954.27 6377.1L2702.07 6068.48 2792.58 5689.66Z" fill="#FFC000" fill-rule="evenodd"/><path d="M2709.89 6081.41C2814.83 6159.69 2883.17 6239.9 2989.17 6291.06 3095.17 6342.22 3132.18 6345.16 3345.88 6388.37L2947.33 6390.14 2709.89 6081.41Z" fill="#FFC000" fill-rule="evenodd"/><path d="M2957.31 6384.78C3084.19 6352.49 3189.53 6349.85 3296 6299.67 3402.47 6249.49 3428.04 6222.58 3596.11 6083.69L3346.67 6394.55 2957.31 6384.78Z" fill="#FFC000" fill-rule="evenodd"/><path d="M3590.72 6051.1C3530.71 5934.73 3504.45 5832.68 3431.6 5740.23 3358.76 5647.78 3326.79 5628.91 3153.65 5496.4L3512.65 5669.52 3590.72 6051.1Z" fill="#FFC000" fill-rule="evenodd"/><path d="M3278.94 5897.84C3276.08 5897.84 3273.54 5897.89 3271.26 5898.01L3265.53 5898.62 3265.39 5898.92C3251.2 5923.26 3226.96 5940.36 3198.57 5952.32 3209.6 5972.73 3235.49 6013.56 3254.6 6042.06L3265.39 6057.2 3278.25 6036.73C3306.15 5990.5 3333.12 5940.64 3353.96 5897.84ZM3124.29 5765.2C3105.18 5765.2 3095 5767.76 3090.32 5771.16 3086.07 5774.56 3083.54 5781.79 3083.54 5797.96L3083.54 5951.08 3111.98 5951.08 3111.98 5951.06C3143.82 5951.06 3165.04 5945.96 3181.18 5933.19 3205.37 5914.48 3215.13 5890.24 3215.13 5856.64 3215.13 5789.87 3171.4 5765.2 3124.29 5765.2ZM2971.05 5743.5 3133.62 5743.5C3181.6 5743.5 3212.57 5749.04 3236.77 5765.19 3262.66 5781.35 3278.8 5809 3278.8 5846.85 3278.8 5853.6 3278.25 5860.02 3277.21 5866.11L3275.94 5870.93 3375.73 5870.93 3378.5 5874.87C3362.17 5909.21 3345.79 5943.49 3329.38 5977.88L3281.41 6078.83 3283.31 6081.35C3291.43 6091.71 3298.54 6099.9 3305.97 6107.55 3322.1 6125.84 3336.11 6132.65 3350.53 6136.05L3347.56 6153.5C3339.92 6153.5 3332.7 6153.08 3325.06 6152.22 3273.69 6149.66 3247.38 6136.05 3218.1 6095.24 3196.46 6065.04 3175.65 6027.19 3156.54 5997.43 3145.09 5979.56 3134.04 5971.9 3101.37 5971.9L3083.54 5971.9 3083.54 6068.88C3083.54 6121.18 3089.48 6125.88 3140.41 6130.12L3140.41 6147.98 2968.5 6147.98 2968.5 6130.12C3019.86 6125.86 3025.81 6121.18 3025.81 6068.88L3025.81 5822.19C3025.81 5769.02 3020.28 5765.62 2971.05 5762.23Z" stroke="#FFC000" stroke-width="3.4375" stroke-miterlimit="8" fill="#FFC000" fill-rule="evenodd"/></g></svg>